<svg width="29" height="29" viewBox="0 0 29 29" fill="none" xmlns="http://www.w3.org/2000/svg">
<path d="M24.1667 14.5C24.1667 15.7818 23.6575 17.0112 22.751 17.9176C21.8446 18.8241 20.6152 19.3333 19.3333 19.3333C18.0515 19.3333 16.8221 18.8241 15.9157 17.9176C15.0092 17.0112 14.5 15.7818 14.5 14.5C14.5 13.2181 15.0092 11.9887 15.9157 11.0823C16.8221 10.1759 18.0515 9.66663 19.3333 9.66663C20.6152 9.66663 21.8446 10.1759 22.751 11.0823C23.6575 11.9887 24.1667 13.2181 24.1667 14.5ZM12.0834 14.5C12.0834 19.8408 9.92044 24.1666 7.25003 24.1666H4.83336V4.8333H7.25003C9.92044 4.8333 12.0834 9.15913 12.0834 14.5Z" fill="white"/>
</svg>
