<svg width="29" height="29" viewBox="0 0 29 29" fill="none" xmlns="http://www.w3.org/2000/svg">
<g clip-path="url(#clip0_224_407)">
<path d="M11.5063 13.3382C11.3874 13.3384 11.2685 13.344 11.1501 13.355V14.4973H11.557C11.8914 14.4973 12.0323 14.3278 12.0323 13.9313C12.0323 13.5983 11.9431 13.3382 11.5063 13.3382Z" fill="white"/>
<path d="M19.1514 10.0209V0.718217H9.83965V10.0209H0.524307V19.3303H9.83965V28.633H19.1514V19.3303H28.464V10.0209H19.1514ZM3.75464 16.5626H1.88096V12.7895H3.70932V13.4007H2.6114V14.3056H3.60239V14.9115H2.6114V15.9681H3.75509L3.75464 16.5626ZM7.19703 16.5626H6.51236V14.1189H6.48925L5.78192 15.5553L5.0687 14.1248V16.5626H4.35548V12.7895H5.04015L5.78192 14.2204L6.51236 12.7895H7.19748L7.19703 16.5626ZM9.81881 16.5626H7.94559V12.7895H9.77395V13.4007H8.67467V14.3056H9.66656V14.9115H8.67467V15.9681H9.81881V16.5626ZM12.7859 16.5626H12.0224L11.6762 15.2386C11.6481 15.1312 11.6254 15.0805 11.5294 15.0805H11.1501V16.5626H10.4197V12.8121C10.7712 12.7749 11.1246 12.7578 11.4782 12.7609C12.248 12.7609 12.7514 13.1121 12.7514 13.886C12.7514 14.4302 12.5308 14.718 12.1964 14.8485V14.8544C12.2761 14.877 12.3042 14.9337 12.3269 15.0293L12.7859 16.5626ZM15.8658 14.9155C15.8658 15.7361 15.6619 16.6247 14.6382 16.6247C13.5902 16.6247 13.2449 15.6124 13.2449 14.684C13.2449 13.7451 13.6251 12.7269 14.6944 12.7269C15.0959 12.7269 15.3954 12.8919 15.6854 13.1796L15.283 13.717C15.119 13.5136 14.9776 13.35 14.6836 13.35C14.0555 13.35 14.0098 14.2204 14.0098 14.6795C14.0098 15.143 14.0265 16.042 14.66 16.042C15.1467 16.042 15.2028 15.6011 15.2028 15.2101V15.075H14.689V14.476H15.8658V14.9155ZM18.3684 16.5626H16.4947V12.7895H18.3235V13.4007H17.2238V14.3056H18.2157V14.9115H17.2238V15.9681H18.3684V16.5626ZM21.5498 16.5626H20.9104L19.6987 14.2327H19.682V16.5626H18.9688V12.7895H19.6761L20.832 15.0238H20.8424V12.7895H21.5498V16.5626ZM23.6002 16.6247C22.5589 16.6247 22.185 15.7031 22.185 14.679C22.185 13.7107 22.5874 12.7265 23.6346 12.7265C24.0755 12.7265 24.3641 12.9254 24.6541 13.2698L24.2173 13.7854C24.0537 13.5358 23.901 13.3495 23.6228 13.3495C23.1067 13.3495 22.9481 13.9998 22.9481 14.679C22.9481 15.1883 23.0505 16.0076 23.6391 16.0076C23.9463 16.0076 24.1149 15.8213 24.3016 15.5721L24.6754 16.1041C24.4262 16.4095 24.0637 16.6247 23.5997 16.6243L23.6002 16.6247ZM26.5219 15.1203V16.5626H25.7969V15.1598L24.8114 12.789H25.593L26.1653 14.5086L26.7367 12.789H27.4789L26.5224 15.1199L26.5219 15.1203Z" fill="white"/>
</g>
<defs>
<clipPath id="clip0_224_407">
<rect width="28.6667" height="28.6667" fill="white" transform="scale(1.01163)"/>
</clipPath>
</defs>
</svg>
