<svg width="57" height="46" viewBox="0 0 57 46" fill="none" xmlns="http://www.w3.org/2000/svg">
<path d="M17.1 23C22.613 23 27.075 17.8558 27.075 11.5C27.075 5.1442 22.613 0 17.1 0C11.587 0 7.125 5.1442 7.125 11.5C7.125 17.8558 11.587 23 17.1 23ZM23.94 26.2857H23.2008C21.3483 27.3125 19.2909 27.9286 17.1 27.9286C14.9091 27.9286 12.8606 27.3125 10.9992 26.2857H10.26C4.59562 26.2857 0 31.5839 0 38.1143V41.0714C0 43.7924 1.91484 46 4.275 46H29.925C32.2852 46 34.2 43.7924 34.2 41.0714V38.1143C34.2 31.5839 29.6044 26.2857 23.94 26.2857ZM42.75 23C47.4703 23 51.3 18.5848 51.3 13.1429C51.3 7.70089 47.4703 3.28571 42.75 3.28571C38.0297 3.28571 34.2 7.70089 34.2 13.1429C34.2 18.5848 38.0297 23 42.75 23ZM47.025 26.2857H46.6866C45.4486 26.7786 44.1394 27.1071 42.75 27.1071C41.3606 27.1071 40.0514 26.7786 38.8134 26.2857H38.475C36.6581 26.2857 34.9837 26.8915 33.5142 27.867C35.6873 30.5674 37.05 34.1509 37.05 38.1143V42.0571C37.05 42.283 37.0055 42.4987 36.9966 42.7143H52.725C55.0852 42.7143 57 40.5067 57 37.7857C57 31.4299 52.538 26.2857 47.025 26.2857Z" fill="white"/>
</svg>
