<svg width="29" height="29" viewBox="0 0 29 29" fill="none" xmlns="http://www.w3.org/2000/svg">
<path d="M20.5417 4.03588C22.3786 5.09642 23.904 6.62181 24.9645 8.45872C26.0251 10.2956 26.5834 12.3793 26.5834 14.5004C26.5834 16.6215 26.025 18.7052 24.9644 20.5421C23.9039 22.379 22.3785 23.9044 20.5416 24.9649C18.7046 26.0254 16.6209 26.5837 14.4998 26.5837C12.3788 26.5837 10.2951 26.0253 8.45816 24.9647C6.62127 23.9041 5.09592 22.3787 4.03542 20.5418C2.97492 18.7049 2.41664 16.6211 2.41669 14.5L2.42274 14.1085C2.49041 12.0217 3.09765 9.98808 4.18526 8.20583C5.27287 6.42358 6.80374 4.95355 8.62861 3.93907C10.4535 2.92459 12.5101 2.40027 14.5979 2.41724C16.6857 2.43421 18.7336 2.99188 20.5417 4.03588ZM14.5 7.25005C14.1796 7.25005 13.8722 7.37735 13.6456 7.60396C13.419 7.83057 13.2917 8.13791 13.2917 8.45838C12.3303 8.45838 11.4083 8.8403 10.7284 9.52012C10.0486 10.1999 9.6667 11.122 9.6667 12.0834C9.6667 13.0448 10.0486 13.9668 10.7284 14.6466C11.4083 15.3265 12.3303 15.7084 13.2917 15.7084V18.125C13.0914 18.1357 12.8914 18.0975 12.7091 18.0138C12.5268 17.93 12.3676 17.8031 12.2453 17.6441L12.1631 17.5221C11.9978 17.2555 11.7353 17.0636 11.431 16.9871C11.1268 16.9105 10.8047 16.9553 10.5329 17.1119C10.2611 17.2685 10.0608 17.5247 9.9745 17.8263C9.88817 18.1279 9.92251 18.4513 10.0703 18.728C10.3787 19.2629 10.8186 19.7101 11.3483 20.0273C11.8781 20.3445 12.48 20.5212 13.0972 20.5405H13.2917C13.2914 20.8367 13.4 21.1226 13.5967 21.344C13.7934 21.5655 14.0645 21.7069 14.3587 21.7416L14.5 21.75C14.8205 21.75 15.1278 21.6227 15.3544 21.3961C15.5811 21.1695 15.7084 20.8622 15.7084 20.5417L15.921 20.5357C16.8631 20.4812 17.7467 20.0616 18.3843 19.366C19.0218 18.6703 19.363 17.7535 19.3353 16.8103C19.3076 15.8671 18.9132 14.9719 18.236 14.3149C17.5587 13.6579 16.652 13.2908 15.7084 13.2917V10.875C16.1409 10.8605 16.5192 11.0442 16.7548 11.356L16.8369 11.478C17.0023 11.7446 17.2648 11.9365 17.569 12.013C17.8733 12.0896 18.1953 12.0448 18.4672 11.8882C18.739 11.7316 18.9392 11.4754 19.0256 11.1738C19.1119 10.8722 19.0775 10.5488 18.9298 10.2721C18.6215 9.73698 18.1817 9.28949 17.6519 8.97207C17.1222 8.65466 16.5202 8.47783 15.9029 8.45838H15.7084C15.7084 8.13791 15.5811 7.83057 15.3544 7.60396C15.1278 7.37735 14.8205 7.25005 14.5 7.25005ZM15.7084 15.7084C16.0288 15.7084 16.3362 15.8357 16.5628 16.0623C16.7894 16.2889 16.9167 16.5962 16.9167 16.9167C16.9167 17.2372 16.7894 17.5445 16.5628 17.7711C16.3362 17.9977 16.0288 18.125 15.7084 18.125V15.7084ZM13.2917 10.875V13.2917C12.9712 13.2917 12.6639 13.1644 12.4373 12.9378C12.2107 12.7112 12.0834 12.4039 12.0834 12.0834C12.0834 11.7629 12.2107 11.4556 12.4373 11.229C12.6639 11.0024 12.9712 10.875 13.2917 10.875Z" fill="white"/>
</svg>
