<svg width="29" height="29" viewBox="0 0 29 29" fill="none" xmlns="http://www.w3.org/2000/svg">
<path d="M2.9 29C2.1025 29 1.42003 28.7013 0.8526 28.1041C0.285167 27.5068 0.000966667 26.7879 0 25.9474V9.15789C0 8.31842 0.2842 7.60003 0.8526 7.00274C1.421 6.40544 2.10347 6.10628 2.9 6.10526H8.7V3.05263C8.7 2.21316 8.9842 1.49477 9.5526 0.897474C10.121 0.300176 10.8035 0.00101754 11.6 0H17.4C18.1975 0 18.8804 0.299158 19.4488 0.897474C20.0172 1.49579 20.301 2.21418 20.3 3.05263V6.10526H26.1C26.8975 6.10526 27.5804 6.40442 28.1488 7.00274C28.7172 7.60105 29.001 8.31944 29 9.15789V25.9474C29 26.7868 28.7163 27.5057 28.1488 28.1041C27.5814 28.7024 26.8985 29.001 26.1 29H2.9ZM11.6 6.10526H17.4V3.05263H11.6V6.10526Z" fill="white"/>
</svg>
