<svg width="350" height="210" viewBox="0 0 350 210" fill="none" xmlns="http://www.w3.org/2000/svg">
<g clip-path="url(#clip0_48_54)">
<path d="M22.0167 44.0175C17.6622 44.0175 13.4055 42.7267 9.78483 40.3083C6.1642 37.89 3.34226 34.4527 1.67587 30.4311C0.0094785 26.4096 -0.426526 21.9843 0.422994 17.715C1.27251 13.4458 3.36941 9.52419 6.4485 6.44622C9.52759 3.36824 13.4506 1.27211 17.7214 0.422902C21.9922 -0.42631 26.4191 0.00953608 30.4421 1.67533C34.4651 3.34111 37.9037 6.16203 40.3229 9.78135C42.7421 13.4007 44.0334 17.6558 44.0334 22.0087C44.0268 27.8438 41.705 33.438 37.5775 37.564C33.45 41.69 27.8538 44.0109 22.0167 44.0175ZM22.0167 0.917042C17.8436 0.917042 13.7643 2.15405 10.2945 4.47163C6.82472 6.78922 4.12036 10.0833 2.52341 13.9373C0.926446 17.7913 0.50861 22.0321 1.32273 26.1235C2.13686 30.2149 4.14637 33.9731 7.09717 36.9228C10.048 39.8726 13.8075 41.8813 17.9004 42.6952C21.9933 43.509 26.2356 43.0913 30.091 41.4949C33.9464 39.8985 37.2417 37.1952 39.5601 33.7267C41.8785 30.2582 43.116 26.1803 43.116 22.0087C43.1097 16.4168 40.8847 11.0557 36.9291 7.10166C32.9736 3.14757 27.6106 0.923381 22.0167 0.917042Z" fill="#F2F2F2"/>
<path d="M171.547 31.179C169.37 31.179 167.241 30.5336 165.431 29.3245C163.621 28.1153 162.21 26.3966 161.376 24.3858C160.543 22.3751 160.325 20.1625 160.75 18.0278C161.175 15.8932 162.223 13.9324 163.763 12.3934C165.302 10.8544 167.264 9.80634 169.399 9.38174C171.535 8.95713 173.748 9.17506 175.76 10.008C177.771 10.8408 179.49 12.2513 180.7 14.061C181.91 15.8706 182.555 17.9982 182.555 20.1747C182.552 23.0922 181.391 25.8893 179.327 27.9523C177.263 30.0153 174.465 31.1757 171.547 31.179ZM171.547 10.0873C169.551 10.0873 167.6 10.6789 165.941 11.7873C164.281 12.8958 162.988 14.4712 162.224 16.3144C161.46 18.1576 161.26 20.1859 161.65 22.1426C162.039 24.0994 163 25.8967 164.411 27.3075C165.823 28.7182 167.621 29.6789 169.578 30.0682C171.536 30.4574 173.565 30.2576 175.408 29.4941C177.252 28.7307 178.828 27.4377 179.937 25.7789C181.046 24.12 181.638 22.1697 181.638 20.1747C181.635 17.5003 180.571 14.9363 178.679 13.0452C176.787 11.1541 174.222 10.0903 171.547 10.0873Z" fill="#F2F2F2"/>
<path d="M249.064 84.8254C246.615 84.8254 244.22 84.0993 242.184 82.739C240.147 81.3787 238.56 79.4452 237.622 77.1831C236.685 74.9209 236.44 72.4317 236.918 70.0303C237.395 67.6288 238.575 65.4229 240.307 63.6915C242.039 61.9602 244.246 60.7811 246.648 60.3034C249.05 59.8258 251.54 60.0709 253.803 61.0079C256.066 61.9449 258 63.5317 259.361 65.5676C260.722 67.6034 261.448 69.997 261.448 72.4455C261.445 75.7277 260.139 78.8744 257.817 81.1953C255.495 83.5162 252.347 84.8217 249.064 84.8254ZM249.064 60.9826C246.796 60.9826 244.579 61.6549 242.693 62.9144C240.807 64.174 239.338 65.9642 238.47 68.0588C237.602 70.1534 237.375 72.4582 237.817 74.6818C238.26 76.9053 239.352 78.9478 240.956 80.551C242.559 82.1541 244.602 83.2458 246.827 83.6881C249.051 84.1304 251.357 83.9034 253.452 83.0358C255.548 82.1682 257.338 80.699 258.598 78.8139C259.858 76.9288 260.531 74.7126 260.531 72.4455C260.528 69.4064 259.318 66.4927 257.169 64.3438C255.019 62.1948 252.104 60.986 249.064 60.9826Z" fill="#F2F2F2"/>
<path d="M349.541 210H246.338C246.216 210 246.1 209.952 246.014 209.866C245.928 209.78 245.879 209.663 245.879 209.542C245.879 209.42 245.928 209.303 246.014 209.217C246.1 209.131 246.216 209.083 246.338 209.083H349.541C349.663 209.083 349.78 209.131 349.866 209.217C349.952 209.303 350 209.42 350 209.542C350 209.663 349.952 209.78 349.866 209.866C349.78 209.952 349.663 210 349.541 210Z" fill="#CCCCCC"/>
<path d="M293.977 70.266C300.199 70.266 305.242 65.224 305.242 59.0044C305.242 52.7848 300.199 47.7428 293.977 47.7428C287.755 47.7428 282.711 52.7848 282.711 59.0044C282.711 65.224 287.755 70.266 293.977 70.266Z" fill="#FFB8B8"/>
<path d="M295.145 192.734L289.821 194.541L280.311 174.871L288.17 172.203L295.145 192.734Z" fill="#FFB8B8"/>
<path d="M285.501 194.312L295.77 190.825L297.966 197.289L281.232 202.97C280.943 202.122 280.825 201.224 280.883 200.33C280.942 199.435 281.176 198.561 281.572 197.757C281.969 196.953 282.52 196.235 283.194 195.644C283.868 195.053 284.652 194.6 285.501 194.312Z" fill="#2F2E41"/>
<path d="M307.176 203.844L301.56 204.126L297.798 182.606L306.088 182.189L307.176 203.844Z" fill="#FFB8B8"/>
<path d="M297.468 202.724L308.299 202.18L308.642 208.997L290.991 209.884C290.946 208.989 291.078 208.093 291.379 207.249C291.68 206.405 292.144 205.628 292.746 204.963C293.347 204.298 294.074 203.758 294.884 203.374C295.694 202.99 296.572 202.769 297.468 202.724Z" fill="#2F2E41"/>
<path d="M273.754 132.341C274.258 131.893 274.657 131.34 274.924 130.721C275.19 130.102 275.318 129.432 275.297 128.758C275.277 128.084 275.109 127.423 274.805 126.821C274.502 126.219 274.07 125.691 273.54 125.275L278.894 109.789L270.642 111.897L266.822 126.279C266.181 127.216 265.905 128.355 266.047 129.48C266.19 130.606 266.74 131.641 267.595 132.388C268.449 133.135 269.548 133.543 270.683 133.535C271.819 133.526 272.911 133.101 273.754 132.341Z" fill="#FFB8B8"/>
<path d="M306.651 197.356C306.579 197.356 306.506 197.352 306.434 197.344L298.81 196.537C298.342 196.49 297.904 196.283 297.57 195.952C297.236 195.62 297.027 195.183 296.976 194.715L291.085 142.211L286.822 156.579L294.77 184.815C294.851 185.103 294.868 185.405 294.821 185.7C294.774 185.995 294.664 186.276 294.497 186.524C294.33 186.772 294.112 186.981 293.857 187.136C293.602 187.292 293.316 187.39 293.019 187.424L285.291 188.312C284.799 188.366 284.304 188.243 283.895 187.964C283.485 187.685 283.19 187.27 283.06 186.792L274.617 155.015C274.547 154.754 274.53 154.482 274.566 154.214L278.361 125.695L306.668 127.964L308.715 195.23C308.723 195.506 308.676 195.781 308.576 196.038C308.476 196.296 308.325 196.531 308.133 196.729C307.941 196.927 307.71 197.085 307.456 197.193C307.201 197.3 306.928 197.356 306.651 197.356Z" fill="#2F2E41"/>
<path d="M296.866 132.84C287.383 132.84 276.646 129.178 275.995 128.953L275.807 128.887L286.506 74.0104L286.703 74.0184C290.943 74.1904 302.513 74.2786 302.63 74.2795L302.837 74.2811L307.297 122.709L308.094 129.792L307.996 129.871C305.268 132.076 301.198 132.84 296.866 132.84Z" fill="#3B5286"/>
<path d="M279.733 128.098L273.042 125.403L276.452 84.1628C276.534 83.1461 276.844 82.1608 277.358 81.2796C277.872 80.3984 278.577 79.6439 279.422 79.0717L282.943 76.6761C282.844 76.3374 282.826 75.9799 282.891 75.633C282.956 75.2861 283.103 74.9596 283.319 74.6803C283.535 74.4011 283.815 74.1771 284.134 74.0267C284.454 73.8763 284.804 73.8038 285.157 73.8151L286.166 73.8476C286.358 73.7184 286.584 73.6501 286.815 73.6518C287.046 73.6534 287.272 73.7249 287.461 73.8568C287.651 73.9887 287.797 74.175 287.879 74.391C287.961 74.6071 287.976 74.8429 287.921 75.0675L287.7 79.4369L279.733 128.098Z" fill="#2F2E41"/>
<path d="M276.357 120.705L267.619 120.337L270.45 102.137L272.795 85.0123C272.841 84.3974 273.026 83.8008 273.335 83.2672C273.644 82.7336 274.07 82.2768 274.581 81.9308C275.091 81.5849 275.674 81.3588 276.284 81.2695C276.895 81.1801 277.517 81.2299 278.106 81.415C279.022 81.7024 279.808 82.3032 280.326 83.112C280.844 83.9207 281.06 84.8859 280.938 85.8382L278.562 104.393L276.357 120.705Z" fill="#2F2E41"/>
<path d="M290.191 128.729L290.132 128.545C290.092 128.419 286.154 115.793 292.743 100.726L296.047 84.2992L298.87 73.9849C298.923 73.8006 299.018 73.6311 299.148 73.49C299.278 73.3489 299.439 73.24 299.618 73.172C299.829 73.099 300.057 73.0897 300.273 73.1452C300.489 73.2007 300.684 73.3185 300.833 73.484C302.801 72.9065 304.917 73.118 306.732 74.0736L310.697 76.1616C311.578 76.6259 312.281 77.3695 312.695 78.2758C313.108 79.1822 313.209 80.2001 312.982 81.17L307.562 104.29L310.197 125.884L290.191 128.729Z" fill="#2F2E41"/>
<path d="M295.962 119.827C296.632 119.9 297.31 119.825 297.949 119.608C298.587 119.39 299.169 119.035 299.656 118.568C300.142 118.101 300.52 117.533 300.763 116.904C301.005 116.275 301.107 115.601 301.061 114.929L313.334 105.841L309.044 103.807L295.81 110.622C294.685 110.774 293.655 111.334 292.915 112.194C292.176 113.055 291.777 114.157 291.796 115.292C291.814 116.427 292.249 117.515 293.017 118.351C293.784 119.187 294.832 119.712 295.962 119.827Z" fill="#FFB8B8"/>
<path d="M303.656 115.759L299.511 108.024L309.734 101.299L304.745 83.4124C304.545 82.6963 304.495 81.9467 304.598 81.2104C304.701 80.4741 304.955 79.7669 305.344 79.133C305.732 78.4992 306.248 77.9522 306.857 77.5263C307.467 77.1005 308.158 76.8048 308.887 76.6578C310.175 76.4012 311.513 76.6205 312.652 77.2752C313.791 77.93 314.653 78.9755 315.079 80.2178L321.81 99.996C321.949 100.404 321.957 100.844 321.832 101.256C321.708 101.669 321.458 102.032 321.117 102.294L303.656 115.759Z" fill="#2F2E41"/>
<path d="M294.774 61.3931C293.423 61.5687 292.405 60.1875 291.932 58.9107C291.46 57.6339 291.1 56.1474 289.926 55.4577C288.322 54.5154 286.269 55.6487 284.435 55.3379C282.363 54.9868 281.016 52.7921 280.911 50.6943C280.805 48.5966 281.64 46.579 282.46 44.6448L282.746 47.0485C282.707 46.2338 282.879 45.423 283.244 44.6935C283.609 43.964 284.154 43.3403 284.829 42.8821L284.461 46.4091C284.539 45.9225 284.713 45.4562 284.972 45.0369C285.231 44.6176 285.571 44.2536 285.971 43.9658C286.371 43.678 286.825 43.4721 287.305 43.3598C287.785 43.2475 288.282 43.2311 288.769 43.3116L288.711 45.4131C291.103 45.1287 293.517 44.8439 295.917 45.0605C298.317 45.2772 300.733 46.0362 302.552 47.6161C305.273 49.9794 306.266 53.8707 305.933 57.4583C305.599 61.0459 304.118 64.4161 302.574 67.6718C302.185 68.491 301.648 69.4153 300.747 69.5196C299.938 69.6134 299.197 68.937 298.945 68.1623C298.752 67.3674 298.759 66.5367 298.967 65.7455C299.195 64.5362 299.482 63.3002 299.268 62.0885C299.054 60.8768 298.182 59.6794 296.96 59.5309C295.738 59.3824 294.488 60.7786 295.075 61.8599L294.774 61.3931Z" fill="#2F2E41"/>
<path d="M208.726 187.065H33.9686C33.8469 187.065 33.7302 187.017 33.6442 186.931C33.5582 186.845 33.5099 186.728 33.5099 186.607C33.5099 186.485 33.5582 186.368 33.6442 186.282C33.7302 186.197 33.8469 186.148 33.9686 186.148H208.726C208.848 186.148 208.964 186.197 209.051 186.282C209.137 186.368 209.185 186.485 209.185 186.607C209.185 186.728 209.137 186.845 209.051 186.931C208.964 187.017 208.848 187.065 208.726 187.065Z" fill="#CCCCCC"/>
</g>
<defs>
<clipPath id="clip0_48_54">
<rect width="350" height="210" fill="white"/>
</clipPath>
</defs>
</svg>
