<svg width="47" height="48" viewBox="0 0 47 48" fill="none" xmlns="http://www.w3.org/2000/svg">
<path d="M2.02264 36.6899L16.3408 45.1326L44.9773 28.2474L44.9772 11.3099L30.659 2.86743L2.02264 19.805V36.6899Z" fill="#2DB357"/>
<path d="M2.02264 19.805L16.3408 28.2475L44.9772 11.3099L44.9773 28.2475L16.3408 45.1326L2.02264 36.6899V19.805Z" fill="#0E834C"/>
<path d="M16.3409 45.1326V28.2475L44.9773 11.3099L44.9774 28.2475L16.3409 45.1326Z" fill="#1A4541"/>
<path d="M30.659 4.80035L5.60217 19.4904L16.472 25.8244L41.5288 11.1346L30.659 4.80035ZM16.4701 24.3917L8.05333 19.487L30.661 6.23314L39.0776 11.1378L16.4701 24.3917Z" fill="white"/>
<path d="M23.9134 17.6809C26.507 17.6809 28.6095 16.4614 28.6095 14.9572C28.6095 13.4529 26.507 12.2335 23.9134 12.2335C21.3198 12.2335 19.2172 13.4529 19.2172 14.9572C19.2172 16.4614 21.3198 17.6809 23.9134 17.6809Z" fill="white"/>
<path d="M31.1809 12.1006C32.3016 12.1006 33.2101 11.5737 33.2101 10.9237C33.2101 10.2738 32.3016 9.74689 31.1809 9.74689C30.0602 9.74689 29.1517 10.2738 29.1517 10.9237C29.1517 11.5737 30.0602 12.1006 31.1809 12.1006Z" fill="#5EE1EB"/>
<path d="M16.3408 20.7518C17.4614 20.7518 18.3699 20.2248 18.3699 19.5747C18.3699 18.9247 17.4614 18.3977 16.3408 18.3977C15.2201 18.3977 14.3116 18.9247 14.3116 19.5747C14.3116 20.2248 15.2201 20.7518 16.3408 20.7518Z" fill="#5EE1EB"/>
<path d="M2.02264 21.975V22.3879L16.3398 31.0472L16.3408 30.6347L2.02264 21.975ZM2.02264 24.2423V24.6553L16.3398 33.3145L16.3408 32.9021L2.02264 24.2423ZM2.02264 26.5098V26.9227L16.3398 35.5821L16.3408 35.1696L2.02264 26.5098ZM2.02264 28.7772V29.1902L16.3398 37.8495L16.3408 37.4372L2.02264 28.7772ZM2.02264 31.0447V31.4577L16.3398 40.117L16.3408 39.7045L2.02264 31.0447ZM2.02264 33.3122V33.7251L16.3398 42.3844L16.3408 41.9719L2.02264 33.3122Z" fill="#2DB357"/>
<path d="M44.9773 13.6685L16.3418 30.6353L16.3409 31.0467L44.9773 14.079V13.6685ZM44.9773 15.9358L16.3418 32.9028L16.3409 33.3141L44.9773 16.3463V15.9358ZM44.9773 18.2032L16.3418 35.1703L16.3409 35.5817L44.9773 18.6138V18.2032ZM44.9774 20.4706L16.3418 37.4377L16.3409 37.849L44.9774 20.8812V20.4706ZM16.3418 39.7052L16.3409 40.1165L44.9774 23.1488V22.738L16.3418 39.7052ZM16.3418 41.9726L16.3409 42.3838L44.9774 25.4162V25.0054L16.3418 41.9726Z" fill="#0E834C"/>
</svg>
