<svg width="57" height="46" viewBox="0 0 57 46" fill="none" xmlns="http://www.w3.org/2000/svg">
<path d="M28.5 20.4444C30.2417 20.4444 31.7332 19.9444 32.9745 18.9443C34.2158 17.9443 34.8354 16.7406 34.8333 15.3333C34.8333 13.9278 34.2137 12.725 32.9745 11.7249C31.7353 10.7248 30.2438 10.2239 28.5 10.2222C26.7583 10.2222 25.2679 10.7231 24.0287 11.7249C22.7894 12.7267 22.1688 13.9295 22.1667 15.3333C22.1667 16.7389 22.7873 17.9426 24.0287 18.9443C25.27 19.9461 26.7604 20.4461 28.5 20.4444ZM12.6667 46V40.8889H25.3333V32.9667C22.7472 32.4981 20.4387 31.6148 18.4078 30.3166C16.3769 29.0183 14.8854 27.3887 13.9333 25.4278C9.975 25.0444 6.66372 23.65 3.9995 21.2443C1.33528 18.8387 0.00211111 16.0165 0 12.7778V10.2222C0 8.81667 0.620667 7.61385 1.862 6.61378C3.10333 5.6137 4.59378 5.11281 6.33333 5.11111H12.6667V0H44.3333V5.11111H50.6667C52.4083 5.11111 53.8998 5.612 55.1412 6.61378C56.3825 7.61556 57.0021 8.81837 57 10.2222V12.7778C57 16.0148 55.6668 18.837 53.0005 21.2443C50.3342 23.6517 47.0229 25.0461 43.0667 25.4278C42.1167 27.387 40.6262 29.0166 38.5953 30.3166C36.5644 31.6165 34.2549 32.4999 31.6667 32.9667V40.8889H44.3333V46H12.6667ZM12.6667 19.9333V10.2222H6.33333V12.7778C6.33333 14.3963 6.91389 15.8555 8.075 17.1554C9.23611 18.4554 10.7667 19.3813 12.6667 19.9333ZM44.3333 19.9333C46.2333 19.3796 47.7639 18.4528 48.925 17.1529C50.0861 15.853 50.6667 14.3946 50.6667 12.7778V10.2222H44.3333V19.9333Z" fill="white"/>
</svg>
