<svg width="29" height="29" viewBox="0 0 29 29" fill="none" xmlns="http://www.w3.org/2000/svg">
<path d="M15.5059 27.9636V17.0809C15.5059 16.3937 15.7793 15.7347 16.2659 15.2488C16.7526 14.7628 17.4126 14.4898 18.1009 14.4898C18.7891 14.4898 19.4492 14.7628 19.9358 15.2488C20.4225 15.7347 20.6959 16.3937 20.6959 17.0809V22.7814H24.848C25.9491 22.7814 27.0052 23.2182 27.7839 23.9956C28.5626 24.7731 29 25.8276 29 26.9271V27.9636" fill="white"/>
<path fill-rule="evenodd" clip-rule="evenodd" d="M9.92281e-07 9.15214C0.00233997 7.83197 0.290183 6.52789 0.843848 5.32905C1.39751 4.13021 2.20394 3.0649 3.20798 2.20596C4.21202 1.34702 5.39 0.714717 6.66136 0.352282C7.93273 -0.0101523 9.26748 -0.0941668 10.5744 0.105984C11.8812 0.306134 13.1294 0.785728 14.2335 1.51197C15.3377 2.23821 16.2717 3.19398 16.9718 4.3139C17.6718 5.43382 18.1214 6.6915 18.2897 8.00091C18.4581 9.31033 18.3413 10.6406 17.9472 11.9008C16.5979 11.9407 15.3172 12.5039 14.3769 13.471C13.4366 14.4382 12.9107 15.733 12.9108 17.0809V17.5349C11.5125 18.1553 9.98103 18.4169 8.45567 18.296C6.93031 18.1751 5.45939 17.6755 4.1766 16.8426C2.8938 16.0097 1.8398 14.8699 1.11039 13.5269C0.380984 12.1838 -0.000710291 10.68 9.92281e-07 9.15214ZM9.18225 2.44015C9.90056 2.44015 10.4798 3.02055 10.4798 3.7357V4.32232C10.9902 4.43908 11.4628 4.68272 11.8536 5.03062C12.2445 5.37851 12.541 5.81938 12.7156 6.31229C12.7725 6.47276 12.7971 6.64284 12.7881 6.81281C12.7791 6.98279 12.7367 7.14933 12.6633 7.30293C12.5898 7.45654 12.4868 7.59419 12.3601 7.70804C12.2333 7.82188 12.0854 7.90969 11.9247 7.96645C11.764 8.0232 11.5936 8.0478 11.4234 8.03883C11.2532 8.02985 11.0864 7.98749 10.9325 7.91415C10.7787 7.84081 10.6408 7.73794 10.5268 7.61141C10.4128 7.48487 10.3249 7.33715 10.268 7.17668C10.2328 7.07724 10.1676 6.99114 10.0813 6.93026C9.99505 6.86938 9.89201 6.8367 9.78638 6.83673H8.38506C8.30758 6.83807 8.23326 6.86765 8.1761 6.9199C8.11894 6.97215 8.08288 7.04346 8.07471 7.12041C8.06655 7.19736 8.08684 7.27463 8.13176 7.33768C8.17669 7.40073 8.24315 7.44521 8.31863 7.46274L10.4507 7.92706C11.14 8.07839 11.7571 8.45946 12.2007 9.00758C12.6442 9.5557 12.8877 10.2382 12.8911 10.9429C12.8945 11.6476 12.6575 12.3324 12.2193 12.8847C11.781 13.4371 11.1676 13.824 10.4798 13.982V14.5706C10.4798 14.9142 10.3431 15.2438 10.0997 15.4867C9.8564 15.7297 9.52638 15.8662 9.18225 15.8662C8.83813 15.8662 8.5081 15.7297 8.26477 15.4867C8.02144 15.2438 7.88474 14.9142 7.88474 14.5706V13.984C7.37495 13.8664 6.90306 13.6224 6.51264 13.2746C6.12222 12.9268 5.82587 12.4864 5.65094 11.9941C5.53614 11.67 5.55498 11.3136 5.70331 11.0034C5.85165 10.6932 6.11733 10.4545 6.4419 10.3399C6.76648 10.2253 7.12336 10.2441 7.43405 10.3922C7.74474 10.5403 7.98377 10.8056 8.09857 11.1297C8.13404 11.2289 8.19933 11.3149 8.28554 11.3757C8.37174 11.4365 8.47464 11.4693 8.58021 11.4696H9.78638C9.91073 11.4666 10.0297 11.4185 10.1212 11.3343C10.2127 11.2501 10.2704 11.1356 10.2836 11.0121C10.2968 10.8886 10.2646 10.7645 10.193 10.663C10.1214 10.5614 10.0152 10.4893 9.89433 10.4601L7.76433 9.99373C7.10455 9.85014 6.51524 9.48212 6.0972 8.95261C5.67917 8.42311 5.45837 7.76502 5.4726 7.09093C5.48682 6.41684 5.73518 5.76862 6.17518 5.25717C6.61518 4.74571 7.21949 4.4028 7.88474 4.28708V3.7357C7.88474 3.01848 8.46602 2.44015 9.18225 2.44015ZM15.5058 17.0809V29H29V26.9271C29 25.8276 28.5625 24.7731 27.7839 23.9956C27.0052 23.2181 25.9491 22.7813 24.8479 22.7813H20.6959V17.0809C20.6959 16.3937 20.4225 15.7346 19.9358 15.2487C19.4492 14.7628 18.7891 14.4898 18.1009 14.4898C17.4126 14.4898 16.7525 14.7628 16.2659 15.2487C15.7792 15.7346 15.5058 16.3937 15.5058 17.0809Z" fill="white"/>
</svg>
