<svg width="46" height="46" viewBox="0 0 46 46" fill="none" xmlns="http://www.w3.org/2000/svg">
<g clip-path="url(#clip0_224_351)">
<path d="M17.3575 29.6267L16.0855 14.5781C16.049 14.1661 16.1365 13.7526 16.3367 13.3907C16.5001 13.0895 16.7365 12.8342 17.0243 12.6483C17.3419 12.4413 17.7098 12.3246 18.0886 12.3107C18.4674 12.2969 18.8428 12.3864 19.1746 12.5697L26.5173 16.6139C26.7774 16.7347 27.0098 16.9076 27.2002 17.122C27.3906 17.3363 27.5348 17.5876 27.624 17.8601C27.7132 18.1325 27.7454 18.4205 27.7186 18.7059C27.6919 18.9914 27.6067 19.2683 27.4683 19.5194C27.33 19.7705 27.1415 19.9905 26.9146 20.1657C26.6876 20.341 26.4271 20.4676 26.1491 20.5379C25.8712 20.6082 25.5817 20.6205 25.2988 20.5742C25.0158 20.5278 24.7454 20.4238 24.5044 20.2686L20.5951 18.1154L21.273 26.1356L31.8822 20.6078C32.1272 20.4803 32.3948 20.4023 32.6699 20.3783C32.9451 20.3542 33.2222 20.3846 33.4856 20.4676C33.7489 20.5507 33.9934 20.6848 34.2049 20.8623C34.4164 21.0398 34.5909 21.2573 34.7184 21.5022C34.8459 21.7472 34.9239 22.0149 34.948 22.29C34.972 22.5651 34.9417 22.8422 34.8586 23.1056C34.7756 23.369 34.6414 23.6134 34.4639 23.8249C34.2864 24.0365 34.069 24.211 33.824 24.3385L20.4152 31.3108C20.1085 31.4682 19.7679 31.5478 19.4232 31.5427C19.0786 31.5377 18.7405 31.448 18.4386 31.2818C18.1366 31.1155 17.8802 30.8776 17.6917 30.589C17.5032 30.3004 17.3884 29.97 17.3575 29.6267ZM37.8312 31.1688C39.4469 28.2354 40.1564 24.8889 39.87 21.5523C39.5837 18.2157 38.3144 15.039 36.2226 12.4238C34.1308 9.8086 31.3105 7.87242 28.1184 6.86011C24.9262 5.84778 21.5055 5.80479 18.2889 6.73655C15.0723 7.66831 12.2042 9.53299 10.0474 12.0948C7.89053 14.6566 6.54178 17.8004 6.17167 21.1287C5.80156 24.457 6.42673 27.8204 7.96812 30.7934C9.50951 33.7664 11.8979 36.2156 14.8312 37.8312C18.7657 39.9931 23.3971 40.5058 27.7091 39.2567C32.0211 38.0077 35.6615 35.0989 37.8312 31.1688Z" fill="white"/>
</g>
<defs>
<clipPath id="clip0_224_351">
<rect width="33.5621" height="33.5621" fill="white" transform="translate(46 16.3375) scale(1.009) rotate(118.845)"/>
</clipPath>
</defs>
</svg>
