<svg width="29" height="29" viewBox="0 0 29 29" fill="none" xmlns="http://www.w3.org/2000/svg">
<path d="M4.8333 4.83333C4.8333 4.16874 5.06973 3.60002 5.54259 3.12716C6.01545 2.6543 6.58457 2.41747 7.24996 2.41666L21.75 2.41666C22.4145 2.41666 22.9833 2.65349 23.4561 3.12716C23.929 3.60083 24.1658 4.16955 24.1666 4.83333V24.1666C24.1666 24.8312 23.9298 25.4004 23.4561 25.874C22.9824 26.3477 22.4137 26.5841 21.75 26.5833H14.1677C14.5302 25.8986 14.6611 25.1583 14.5604 24.3624C14.4597 23.5665 14.1173 22.877 13.5333 22.2937L9.27392 18.0646L10.15 17.1583C10.8548 16.4535 11.202 15.6076 11.1915 14.6208C11.1811 13.634 10.8238 12.7882 10.1198 12.0833C9.39475 11.3583 8.53885 10.9958 7.55204 10.9958C6.56524 10.9958 5.71941 11.3483 5.01455 12.0531L4.8333 12.2344V4.83333ZM19.3333 4.83333H14.5L14.5 24.1666H19.3333L19.3333 4.83333ZM5.86038 18.0646L11.8114 24.0156C12.0531 24.2573 12.1691 24.5444 12.1594 24.8771C12.1497 25.2098 12.0237 25.4966 11.7812 25.7375C11.5395 25.959 11.2576 26.075 10.9354 26.0855C10.6132 26.0959 10.3312 25.9799 10.0895 25.7375L3.26247 18.9104C3.0208 18.6687 2.89996 18.3868 2.89996 18.0646C2.89996 17.7423 3.0208 17.4604 3.26247 17.2187L6.70621 13.775C6.92774 13.5535 7.20445 13.4375 7.53634 13.427C7.86822 13.4165 8.15541 13.5325 8.39788 13.775C8.61941 13.9965 8.73017 14.2736 8.73017 14.6063C8.73017 14.939 8.61941 15.2258 8.39788 15.4667L5.86038 18.0646Z" fill="white"/>
</svg>
