<svg width="30" height="30" viewBox="0 0 30 30" fill="none" xmlns="http://www.w3.org/2000/svg">
<mask id="mask0_224_394" style="mask-type:luminance" maskUnits="userSpaceOnUse" x="0" y="0" width="30" height="30">
<path d="M18.7719 0.666656L18.7719 29.3333L2.17542 29.3333C1.77527 29.3333 1.39151 29.1744 1.10856 28.8914C0.825611 28.6085 0.666653 28.2247 0.666653 27.8245L0.666653 2.17543C0.666653 1.77528 0.825611 1.39151 1.10856 1.10857C1.39151 0.825616 1.77527 0.666656 2.17542 0.666656L18.7719 0.666656Z" fill="white" stroke="white" stroke-width="1.33333" stroke-linejoin="round"/>
<path d="M25.5614 0.666656C25.9616 0.666656 26.3453 0.825616 26.6283 1.10857C26.9112 1.39151 27.0702 1.77528 27.0702 2.17543L27.0702 27.8245C27.0702 28.2247 26.9112 28.6085 26.6283 28.8914C26.3453 29.1744 25.9616 29.3333 25.5614 29.3333H18.7719L18.7719 0.666656L25.5614 0.666656Z" stroke="white" stroke-width="1.33333" stroke-linejoin="round"/>
<path d="M9.71929 8.9649L5.19298 13.4912L14.2456 22.5439" stroke="black" stroke-width="1.33333" stroke-linecap="round" stroke-linejoin="round"/>
<path d="M29.3333 8.9649L23.2982 8.9649M29.3333 21.0351H23.2982" stroke="white" stroke-width="1.33333" stroke-linecap="round"/>
</mask>
<g mask="url(#mask0_224_394)">
<path d="M33.1053 -3.10529L33.1053 33.1052L-3.10523 33.1052L-3.10523 -3.10529L33.1053 -3.10529Z" fill="white"/>
</g>
</svg>
