<svg width="57" height="46" viewBox="0 0 57 46" fill="none" xmlns="http://www.w3.org/2000/svg">
<path d="M39.9615 33.0231C42.488 31.7002 42.1606 26.6026 39.2326 21.6291C37.9766 19.4876 36.4323 17.7535 34.888 16.5412C33.0413 17.8322 30.8044 18.5324 28.5048 18.5391C26.2017 18.5343 23.9609 17.8341 22.1114 16.5412C20.5671 17.7535 19.0269 19.4896 17.7668 21.6291C14.8367 26.6007 14.5134 31.7002 17.0461 33.0231C18.1745 33.6283 19.3646 33.1744 20.5918 32.061C20.3621 33.2606 20.247 34.4772 20.248 35.6961C20.248 41.3951 22.5953 46 25.4842 46C27.2261 46 28.0889 44.3221 28.5028 41.7559C28.9146 44.3047 29.7794 46 31.509 46C34.3855 46 36.7514 41.3931 36.7514 35.6961C36.7514 34.4159 36.6237 33.1938 36.4055 32.063C37.6409 33.1783 38.827 33.64 39.9594 33.027L39.9615 33.0231ZM28.5007 16.5994C29.669 16.6158 30.829 16.4132 31.9134 16.0033C32.9977 15.5934 33.9847 14.9845 34.8168 14.2119C35.649 13.4393 36.3097 12.5185 36.7606 11.5031C37.2115 10.4877 37.4435 9.3979 37.443 8.29724C37.4426 7.19657 37.2098 6.10697 36.7582 5.09186C36.3066 4.07674 35.6452 3.15638 34.8124 2.38434C33.9797 1.61229 32.9923 1.00399 31.9076 0.594825C30.823 0.18566 29.6628 -0.0161926 28.4945 0.00101442C26.1814 0.0350851 23.9753 0.92484 22.3525 2.47815C20.7298 4.03146 19.8207 6.12369 19.8215 8.30306C19.8223 10.4824 20.733 12.574 22.3569 14.1263C23.9807 15.6785 26.1875 16.5668 28.5007 16.5994ZM46.1964 21.8638C48.078 21.812 49.864 21.0715 51.1755 19.7994C52.487 18.5273 53.2206 16.8238 53.2206 15.0505C53.2206 13.2772 52.487 11.5737 51.1755 10.3016C49.864 9.0295 48.078 8.28896 46.1964 8.23715C44.2776 8.23741 42.4376 8.95569 41.0811 10.234C39.7245 11.5123 38.9626 13.2459 38.9629 15.0534C38.9631 16.8609 39.7256 18.5943 41.0825 19.8722C42.4395 21.1502 44.2797 21.868 46.1984 21.8677L46.1964 21.8638ZM55.0092 25.9955C53.9755 24.2342 52.7113 22.8104 51.4429 21.8153C49.9257 22.8743 48.0888 23.4487 46.2005 23.4544C44.6438 23.4544 43.1942 23.0529 41.9259 22.3875C42.9472 24.5077 43.5793 26.655 43.6967 28.5753C43.8902 31.516 42.9142 33.6962 40.9622 34.7146C40.5439 34.9311 40.089 35.0781 39.6176 35.1491C39.5003 35.9095 39.42 36.7009 39.42 37.535C39.42 42.2156 41.3452 45.9961 43.7193 45.9961C45.1483 45.9961 45.8607 44.6189 46.1984 42.5123C46.5341 44.6073 47.2444 45.9961 48.6693 45.9961C51.027 45.9961 52.9728 42.2136 52.9728 37.5389C52.9728 36.4856 52.8636 35.4827 52.6845 34.5517C53.6976 35.4692 54.6736 35.8474 55.6043 35.3431C57.6778 34.2568 57.4101 30.0709 55.0071 25.9935L55.0092 25.9955ZM10.8051 21.8638C12.2351 21.8631 13.6328 21.4629 14.8215 20.7138C16.0102 19.9648 16.9364 18.9006 17.4831 17.6557C18.0298 16.4109 18.1724 15.0413 17.8929 13.72C17.6135 12.3988 16.9244 11.1854 15.9129 10.233C14.9014 9.28067 13.6129 8.63225 12.2102 8.3697C10.8076 8.10716 9.35376 8.2423 8.03263 8.75802C6.71149 9.27375 5.58233 10.1469 4.78791 11.2671C3.99349 12.3873 3.56948 13.7043 3.56948 15.0515C3.57002 16.8591 4.33252 18.5925 5.68933 19.8707C7.04615 21.1489 8.88623 21.8672 10.8051 21.8677V21.8638ZM16.0248 34.7088C12.7468 32.9921 12.4461 27.8731 15.0859 22.3837C13.7811 23.0815 12.3075 23.4509 10.8071 23.4563C8.83864 23.4563 7.03489 22.8356 5.55648 21.8153C4.29015 22.8085 3.02794 24.2322 1.99017 25.9916C-0.412766 30.0728 -0.676327 34.2588 1.39922 35.3411C2.3258 35.8416 3.30386 35.4672 4.31074 34.5536C4.1258 35.5385 4.03279 36.5367 4.03277 37.5369C4.03277 42.2156 5.958 45.9942 8.33211 45.9942C9.76111 45.9942 10.4735 44.617 10.8112 42.5123C11.151 44.6073 11.8614 45.9961 13.2821 45.9961C15.6439 45.9961 17.5856 42.2136 17.5856 37.5389C17.5856 36.6989 17.5032 35.9056 17.3858 35.1452C16.9093 35.0744 16.4494 34.9261 16.0269 34.7068L16.0248 34.7088Z" fill="white"/>
</svg>
