<svg width="29" height="29" viewBox="0 0 29 29" fill="none" xmlns="http://www.w3.org/2000/svg">
<path d="M3.06919 24.0337C2.95732 24.1456 2.86858 24.2784 2.80804 24.4246C2.7475 24.5707 2.71634 24.7274 2.71634 24.8856C2.71634 25.0438 2.7475 25.2005 2.80804 25.3466C2.86858 25.4928 2.95732 25.6256 3.06919 25.7375C3.29513 25.9634 3.60155 26.0903 3.92107 26.0903C4.24058 26.0903 4.54701 25.9634 4.77294 25.7375L7.25003 23.2725V24.1666C7.25003 25.5079 8.32544 26.5712 9.66669 26.5712L22.9584 26.5833C24.2996 26.5833 25.375 25.5079 25.375 24.1666V5.14748L26.9338 3.58873C27.0456 3.47686 27.1344 3.34405 27.1949 3.19788C27.2555 3.05172 27.2866 2.89506 27.2866 2.73685C27.2866 2.57865 27.2555 2.42199 27.1949 2.27582C27.1344 2.12966 27.0456 1.99685 26.9338 1.88498C26.8219 1.77311 26.6891 1.68437 26.5429 1.62383C26.3968 1.56328 26.2401 1.53212 26.0819 1.53212C25.9237 1.53212 25.767 1.56328 25.6209 1.62383C25.4747 1.68437 25.3419 1.77311 25.23 1.88498L3.06919 24.0337ZM4.83336 16.9166L4.83336 12.0833H7.25003V16.4333L21.2667 2.41664H9.66669C8.32544 2.41664 7.25003 3.49206 7.25003 4.83331V9.66665H4.83336C3.49211 9.66665 2.41669 10.7421 2.41669 12.0833L2.41669 16.9166C2.41669 18.1129 3.26253 19.0916 4.39836 19.285L6.76669 16.9166H4.83336Z" fill="white"/>
</svg>
