<svg width="22" height="23" viewBox="0 0 22 23" fill="none" xmlns="http://www.w3.org/2000/svg">
<path d="M3.28022 0.539982L11 8.25973L18.6797 0.579981C18.8493 0.399422 19.0537 0.254981 19.2805 0.155319C19.5073 0.0556578 19.7519 0.00282859 19.9997 0C20.5301 0 21.0388 0.210707 21.4138 0.585767C21.7889 0.960827 21.9996 1.46952 21.9996 1.99993C22.0043 2.24513 21.9588 2.48869 21.8659 2.71567C21.7731 2.94265 21.6348 3.14827 21.4596 3.31989L13.6799 10.9996L21.4596 18.7794C21.7892 19.1018 21.9825 19.5385 21.9996 19.9993C21.9996 20.5298 21.7889 21.0384 21.4138 21.4135C21.0388 21.7886 20.5301 21.9993 19.9997 21.9993C19.7448 22.0098 19.4905 21.9673 19.2529 21.8743C19.0154 21.7814 18.7997 21.64 18.6197 21.4593L11 13.7395L3.30022 21.4393C3.13123 21.6138 2.92936 21.7532 2.70624 21.8493C2.48312 21.9454 2.24318 21.9964 2.00026 21.9993C1.46984 21.9993 0.961153 21.7886 0.586092 21.4135C0.211032 21.0384 0.000325402 20.5298 0.000325402 19.9993C-0.00433743 19.7541 0.0411549 19.5106 0.134011 19.2836C0.226867 19.0566 0.365128 18.851 0.540307 18.6794L8.32005 10.9996L0.540307 3.21989C0.210688 2.89742 0.0174041 2.46074 0.000325402 1.99993C0.000325402 1.46952 0.211032 0.960827 0.586092 0.585767C0.961153 0.210707 1.46984 0 2.00026 0C2.48024 0.0059998 2.94023 0.199993 3.28022 0.539982Z" fill="black"/>
</svg>
