<svg width="36" height="36" viewBox="0 0 36 36" fill="none" xmlns="http://www.w3.org/2000/svg">
<path d="M31.1607 6.03849C31.1607 7.75672 25.3593 9.14968 18.203 9.14968C11.0466 9.14968 5.2453 7.75679 5.2453 6.03849C5.2453 4.3202 11.0466 2.92731 18.203 2.92731C25.3593 2.92731 31.1607 4.32027 31.1607 6.03849Z" fill="#DDDDDD"/>
<path d="M31.1607 6.03851V32.5203C31.1607 34.2385 25.3593 35.6315 18.203 35.6315C11.0466 35.6315 5.2453 34.2386 5.2453 32.5204V6.03851H31.1607Z" fill="#9AAAB4"/>
<path d="M31.1607 6.03849C31.1607 7.75672 25.3593 9.14968 18.203 9.14968C11.0466 9.14968 5.2453 7.75679 5.2453 6.03849C5.2453 4.3202 11.0466 2.92731 18.203 2.92731C25.3593 2.92731 31.1607 4.32027 31.1607 6.03849Z" fill="#D5DEE2"/>
<path d="M31.1607 10.9396V27.817C31.1607 29.5352 25.3593 30.9282 18.203 30.9282C11.0466 30.9282 5.2453 29.5352 5.2453 27.8169V10.9396C5.2453 12.6578 11.0466 14.0508 18.203 14.0508C25.3593 14.0508 31.1607 12.6578 31.1607 10.9396Z" fill="#00B89C"/>
<path d="M22.4396 1.5094V5.47488C22.4396 6.03668 20.5428 6.49209 18.2029 6.49209C15.8631 6.49209 13.9662 6.03668 13.9662 5.47488V1.5094H22.4396Z" fill="#9AAAB4"/>
<path d="M22.4396 1.5094C22.4396 2.0712 20.5428 2.52661 18.2029 2.52661C15.8631 2.52661 13.9662 2.0712 13.9662 1.5094C13.9662 0.947601 15.8631 0.492188 18.203 0.492188C20.5429 0.492188 22.4396 0.947601 22.4396 1.5094Z" fill="#D5DEE2"/>
<path d="M21.4022 20.4961H19.5038V22.3945H16.9022V20.4961H15.0038V17.8945H16.9022V15.9961H19.5038V17.8945H21.4022V20.4961ZM21.4022 26.106H15.0038V28.7075H21.4022V26.106Z" fill="#E5E4DF"/>
</svg>
