<svg width="29" height="29" viewBox="0 0 29 29" fill="none" xmlns="http://www.w3.org/2000/svg">
<g clip-path="url(#clip0_224_384)">
<path d="M26.5833 15.3055C26.4773 15.3061 26.3722 15.2858 26.2741 15.2457C26.1759 15.2056 26.0867 15.1466 26.0114 15.0719L14.5 3.55245L2.98862 15.0719C2.83452 15.2039 2.63629 15.2728 2.43355 15.265C2.23081 15.2572 2.03849 15.1731 1.89503 15.0297C1.75156 14.8862 1.66752 14.6939 1.65969 14.4911C1.65185 14.2884 1.72082 14.0902 1.85279 13.9361L13.9361 1.85272C14.0871 1.70269 14.2912 1.61847 14.504 1.61847C14.7169 1.61847 14.921 1.70269 15.072 1.85272L27.1553 13.9361C27.2661 14.0491 27.3412 14.1924 27.3711 14.3479C27.401 14.5034 27.3844 14.6643 27.3233 14.8104C27.2623 14.9565 27.1596 15.0814 27.028 15.1695C26.8963 15.2575 26.7417 15.3049 26.5833 15.3055Z" fill="white"/>
<path d="M14.4999 6.27526L4.83323 15.9741V25.7778C4.83323 26.2051 5.00298 26.6148 5.30512 26.917C5.60726 27.2191 6.01705 27.3889 6.44435 27.3889H12.0832V19.3333H16.9166V27.3889H22.5555C22.9827 27.3889 23.3925 27.2191 23.6947 26.917C23.9968 26.6148 24.1666 26.2051 24.1666 25.7778V15.9178L14.4999 6.27526Z" fill="white"/>
</g>
<defs>
<clipPath id="clip0_224_384">
<rect width="28.6667" height="28.6667" fill="white" transform="scale(1.01163)"/>
</clipPath>
</defs>
</svg>
