<svg width="57" height="46" viewBox="0 0 57 46" fill="none" xmlns="http://www.w3.org/2000/svg">
<path d="M2.85 46C2.0425 46 1.3661 45.7547 0.8208 45.264C0.2755 44.7733 0.0019 44.1668 0 43.4444V17.8889C0 17.1648 0.2736 16.5583 0.8208 16.0693C1.368 15.5804 2.0444 15.335 2.85 15.3333H12.825C13.6325 15.3333 14.3098 15.5787 14.857 16.0693C15.4042 16.56 15.6769 17.1665 15.675 17.8889V43.4444C15.675 44.1685 15.4014 44.7759 14.8542 45.2665C14.307 45.7572 13.6306 46.0017 12.825 46H2.85ZM23.5125 46C22.705 46 22.0286 45.7547 21.4833 45.264C20.938 44.7733 20.6644 44.1668 20.6625 43.4444V2.55556C20.6625 1.83148 20.9361 1.22496 21.4833 0.736C22.0305 0.247037 22.7069 0.0017037 23.5125 0H33.4875C34.295 0 34.9723 0.245334 35.5195 0.736C36.0667 1.22667 36.3394 1.83318 36.3375 2.55556V43.4444C36.3375 44.1685 36.0639 44.7759 35.5167 45.2665C34.9695 45.7572 34.2931 46.0017 33.4875 46H23.5125ZM44.175 46C43.3675 46 42.6911 45.7547 42.1458 45.264C41.6005 44.7733 41.3269 44.1668 41.325 43.4444V23C41.325 22.2759 41.5986 21.6694 42.1458 21.1804C42.693 20.6915 43.3694 20.4461 44.175 20.4444H54.15C54.9575 20.4444 55.6348 20.6898 56.182 21.1804C56.7292 21.6711 57.0019 22.2776 57 23V43.4444C57 44.1685 56.7264 44.7759 56.1792 45.2665C55.632 45.7572 54.9556 46.0017 54.15 46H44.175Z" fill="white"/>
</svg>
